HIERARCHY
ROOT pelvis
{
  OFFSET 0 100 0
  CHANNELS 6 Xposition Yposition Zposition Zrotation Xrotation Yrotation
  JOINT pelvis_right_femur
  {
    OFFSET -10.78128 -3.44521 -0.5502486
    CHANNELS 3 Zrotation Xrotation Yrotation
    JOINT right_femur_tibia
    {
      OFFSET -0.8047443 -44.0398 -0.1307829
      CHANNELS 3 Zrotation Xrotation Yrotation
      JOINT right_tibia_foot
      {
        OFFSET 3.006224 -47.83518 -5
        CHANNELS 3 Zrotation Xrotation Yrotation
        End Site
        {
          OFFSET 0 -5 15
        }
      }
    }
  }
  JOINT pelvis_left_femur
  {
    OFFSET 10.78128 -3.44521 -0.5502486
    CHANNELS 3 Zrotation Xrotation Yrotation
    JOINT left_femur_tibia
    {
      OFFSET 0.8047443 -44.0398 -0.1307829
      CHANNELS 3 Zrotation Xrotation Yrotation
      JOINT left_tibia_foot
      {
        OFFSET -4.370144 -48.10324 -4.275266
        CHANNELS 3 Zrotation Xrotation Yrotation
        End Site
        {
          OFFSET 0 -5 15
        }
      }
    }
  }
  JOINT pelvis_spine1
  {
    OFFSET 0 6.468898 -3.129235
    CHANNELS 3 Zrotation Xrotation Yrotation
    JOINT spine1
    {
      OFFSET 0 23.15396 4.99043
      CHANNELS 3 Zrotation Xrotation Yrotation
      JOINT spine2
      {
        OFFSET 0 20.79997 -5.064912
        CHANNELS 3 Zrotation Xrotation Yrotation
        JOINT neck
        {
          OFFSET 0 14.38658 9.616178
          CHANNELS 3 Zrotation Xrotation Yrotation
          End Site
          {
            OFFSET 0 20 0
          }
        }
      }
      JOINT right_manubrium
      {
        OFFSET -5.722621 16.35077 3.967754
        CHANNELS 3 Zrotation Xrotation Yrotation
        JOINT right_clavicle
        {
          OFFSET -13.16364 1.694482 -4.693211
          CHANNELS 3 Zrotation Xrotation Yrotation
          JOINT right_humerus
          {
            OFFSET -28.5034 -0.3100689 -2.792744
            CHANNELS 3 Zrotation Xrotation Yrotation
            JOINT right_radius
            {
              OFFSET -25.15693 0.02248979 -1.271978
              CHANNELS 3 Zrotation Xrotation Yrotation
              End Site
              {
                OFFSET -15 0 0
              }
            }
          }
        }
      }
      JOINT left_manubrium
      {
        OFFSET 5.722621 16.35077 3.967754
        CHANNELS 3 Zrotation Xrotation Yrotation
        JOINT left_clavicle
        {
          OFFSET 13.16364 1.694482 -4.693211
          CHANNELS 3 Zrotation Xrotation Yrotation
          JOINT left_humerus
          {
            OFFSET 29.39168 -1.063119 -2.237045
            CHANNELS 3 Zrotation Xrotation Yrotation
            JOINT left_radius
            {
              OFFSET 24.59957 -0.9528479 0.9047498
              CHANNELS 3 Zrotation Xrotation Yrotation
              End Site
              {
                OFFSET 15 -0 -0
              }
            }
          }
        }
      }
    }
  }
}
MOTION
Frames: 21
Frame Time: 0.0416666666667
0 103.5113 0 1.072925 -1.260611 0.1041358 3.237043 -16.3213 8.245682 -0 36.14132 -0 -5.834295 -17.01597 -4.370008 -6.705852 12.26286 -22.85232 -0 7.310346 -0 5.486874 -17.45782 23.92673 -1.704577 -3.685385 3.245485 4.028192 7.470184 -9.684405 1.416733 17.94799 8.215525 4.182379 -28.81988 10.54747 6.189616 -18.81366 11.59464 84.34312 29.86608 -20.23846 -0 0 19.48042 -7.079836 9.783081 3.151516 10.1767 -21.43393 3.885714 -95.06321 20.38999 20.75674 0 0 -11.60779 11.60447 19.21827 -1.532894
0.1980787 103.2817 1.707023 0.7046537 -0.9856812 0.1888343 3.740238 -19.39193 8.069139 -0 35.41017 -0 -5.940893 -14.39939 -4.25627 -6.428147 12.93953 -22.78553 -0 5.888583 -0 5.047043 -19.5064 24.05589 -1.736765 -3.64927 3.16004 4.139989 7.351696 -9.727086 1.371211 17.87075 8.326098 4.218966 -28.96025 10.60572 6.168917 -18.74262 11.63428 84.20887 29.97329 -20.11793 -0 0 19.34975 -7.158272 9.85579 3.327116 10.24563 -21.45872 3.991878 -94.75526 20.05053 20.30079 0 0 -11.92432 11.99342 18.93689 -2.068123
0.3805041 102.9801 3.720879 0.2393054 -0.1315751 0.3184742 4.608399 -23.01337 7.949396 -0 32.96711 -0 -6.117492 -12.57659 -3.934946 -6.16041 13.30859 -22.09942 -0 6.420862 -0 5.240493 -20.3093 23.64506 -1.856908 -3.023881 2.862207 4.47127 7.719781 -9.781659 1.059094 18.35598 8.440877 4.248999 -28.65761 10.22796 6.039722 -17.69742 11.66952 85.17321 31.69539 -21.07624 -0 0 15.76716 -8.205438 10.48497 4.545243 9.574717 -21.91856 2.747515 -92.66431 19.98509 17.80006 0 0 -14.97726 12.18852 16.45881 -2.040129
0.5609971 102.5666 6.057331 -0.2357039 0.7376461 0.5108829 5.413479 -26.53332 7.655004 -0 30.1791 -0 -6.218187 -10.57556 -3.484725 -5.882394 13.64114 -21.29634 -0 6.623252 -0 5.005722 -21.40265 22.97839 -1.903269 -2.780045 2.831539 4.51064 7.944581 -9.734655 0.9616672 18.57913 8.470439 4.246411 -28.43404 10.10279 5.971391 -17.38109 11.69677 85.61066 32.43287 -21.39561 -0 0 14.45666 -8.61072 10.66566 4.99248 9.263177 -22.08897 2.172099 -91.80879 19.97526 16.8663 0 0 -16.36092 12.32228 15.38744 -2.031067
0.7418343 102.0814 8.800013 -0.7036078 1.652868 0.7685406 6.227357 -29.45179 7.331481 -0 27.03295 -0 -6.327797 -9.05313 -3.016289 -5.61414 13.88949 -20.29181 -0 7.494876 -0 4.700923 -21.8915 21.96019 -1.933495 -2.55754 2.818454 4.511437 8.177062 -9.690089 0.8761746 18.78251 8.476855 4.24161 -28.16498 9.953837 5.893883 -17.09905 11.72256 86.07147 33.00839 -21.74161 -0 0 13.30745 -9.073333 10.84941 5.414073 8.966126 -22.24156 1.621171 -91.05693 20.00032 16.08222 0 0 -17.57387 12.28209 14.43056 -1.83991
0.9280185 101.55 11.9973 -1.174483 2.508578 1.087212 7.003327 -31.78504 6.924001 -0 23.79323 -0 -6.467499 -7.712551 -2.549741 -5.330605 14.13802 -19.16135 -0 8.858451 -0 4.085435 -22.04008 20.59217 -1.951642 -2.398051 2.835616 4.481503 8.365231 -9.637493 0.8218801 18.9359 8.472933 4.232759 -27.93707 9.84801 5.827234 -16.92802 11.74613 86.42306 33.41258 -21.97536 -0 0 12.53335 -9.417933 10.96432 5.710625 8.737411 -22.34071 1.204991 -90.52249 20.02858 15.5616 0 0 -18.46563 12.2394 13.72692 -1.673317
1.120675 101.0268 15.66694 -1.622566 3.185925 1.447283 7.706103 -33.18739 6.529785 -0 20.9583 -0 -6.684156 -6.725177 -2.183001 -5.03727 14.35934 -18.02055 -0 10.99974 -0 3.228892 -21.60658 18.98261 -1.961088 -2.259902 2.856847 4.440811 8.538801 -9.592097 0.7759705 19.06722 8.457858 4.22384 -27.71146 9.736481 5.762763 -16.78178 11.76539 86.74601 33.70423 -22.19625 -0 0 11.89117 -9.767726 11.07682 5.977763 8.53503 -22.4228 0.8382017 -90.08187 20.07006 15.15158 0 0 -19.18573 12.11937 13.13434 -1.437419
1.319517 100.5805 19.80532 -2.040098 3.618146 1.820785 8.31089 -33.61042 6.173327 -0 18.78 -0 -7.011219 -6.052401 -1.943326 -4.728862 14.49875 -16.93474 -0 14.06318 -0 2.119279 -20.59012 17.2136 -1.964091 -2.136318 2.889442 4.387132 8.708594 -9.544355 0.7380844 19.18993 8.429007 4.211812 -27.48326 9.6199 5.701634 -16.66033 11.78041 87.0426 33.92366 -22.39411 -0 0 11.35006 -10.11352 11.18112 6.218826 8.343946 -22.48738 0.5011346 -89.72094 20.13367 14.8443 0 0 -19.76461 11.94721 12.62517 -1.147689
1.522099 100.2919 24.3775 -2.394035 3.738169 2.169268 8.763268 -32.93666 5.890111 -0 17.50089 -0 -7.469698 -5.759547 -1.859198 -4.416767 14.42391 -15.98105 -0 18.19922 -0 0.8151906 -18.9581 15.42323 -1.96065 -2.015321 2.939657 4.315205 8.893113 -9.487404 0.7051519 19.32051 8.377445 4.19368 -27.23057 9.481791 5.642506 -16.55213 11.78989 87.32953 34.09041 -22.57795 -0 0 10.86168 -10.4864 11.28716 6.454733 8.14204 -22.53599 0.162168 -89.42465 20.23924 14.63544 0 0 -20.21596 11.69604 12.16677 -0.7613973
1.725654 100.2441 29.3254 -2.641292 3.531863 2.452844 8.996121 -31.13867 5.666958 -0 17.11151 -0 -8.040794 -5.868574 -1.91206 -4.124147 13.93932 -15.17788 -0 23.4647 -0 -0.6240718 -16.76587 13.72535 -1.951405 -1.888905 3.022411 4.214123 9.108108 -9.406008 0.6774176 19.47525 8.29461 4.164671 -26.9356 9.315337 5.583547 -16.46372 11.79449 87.60848 34.23115 -22.72937 -0 0 10.41423 -10.89544 11.39001 6.694719 7.907928 -22.56112 -0.202264 -89.19126 20.40463 14.545 0 0 -20.54595 11.36341 11.73479 -0.2612899
1.92813 100.5053 34.56586 -2.722301 3.022416 2.638237 8.928326 -28.21541 5.462385 -0 17.41942 -0 -8.659634 -6.401364 -2.049494 -3.887137 12.78239 -14.50281 -0 29.75418 -0 -2.114506 -14.14147 12.22969 -1.937355 -1.750034 3.15447 4.071148 9.365737 -9.283138 0.6548658 19.66821 8.172369 4.120547 -26.57962 9.113068 5.521246 -16.40602 11.79542 87.87147 34.36591 -22.81795 -0 0 10.0124 -11.35697 11.48504 6.952449 7.622128 -22.55125 -0.6101564 -89.02414 20.64531 14.60157 0 0 -20.75074 10.94158 11.30674 0.3728539
2.129173 101.1077 39.99592 -2.581172 2.282317 2.711126 8.506331 -24.25128 5.214051 -0 18.02395 -0 -9.216694 -7.334196 -2.175745 -3.734433 10.6493 -13.87337 -0 36.72297 -0 -3.547711 -11.30351 11.01944 -1.920953 -1.59445 3.354436 3.872305 9.670043 -9.099305 0.6372445 19.90825 8.006788 4.058426 -26.14735 8.872203 5.449224 -16.39847 11.79527 88.095 34.51331 -22.7931 -0 0 9.685758 -11.88821 11.56495 7.245183 7.271257 -22.49048 -1.068366 -88.92794 20.9661 14.83676 0 0 -20.82948 10.43332 10.85834 1.144458
2.330389 102.0236 45.49951 -2.191108 1.415825 2.682562 7.749127 -19.45087 4.860579 -0 18.39398 -0 -9.586851 -8.583826 -2.169938 -3.651245 7.259972 -13.16093 -0 43.69545 -0 -4.763556 -8.5541 10.1653 -1.90601 -1.4223 3.638342 3.605602 10.01235 -8.837397 0.6230061 20.19391 7.799876 3.978317 -25.62955 8.593138 5.358361 -16.46522 11.79711 88.23657 34.67947 -22.58736 -0 0 9.490528 -12.51428 11.62513 7.597166 6.854354 -22.36105 -1.56583 -88.90877 21.35553 15.27955 0 0 -20.77791 9.84504 10.36865 2.042787
2.535769 103.1465 50.95987 -1.58764 0.5259147 2.583161 6.789648 -14.16025 4.361821 -0 17.99276 -0 -9.68164 -9.986335 -1.932534 -3.536509 2.488804 -12.21381 -0 49.63962 -0 -5.534351 -6.231133 9.744965 -1.897162 -1.239693 4.015661 3.264494 10.36875 -8.487211 0.6091458 20.51006 7.560713 3.883682 -25.02712 8.279985 5.237935 -16.63199 11.80359 88.23555 34.85075 -22.12294 -0 0 9.507834 -13.26583 11.66523 8.03731 6.387359 -22.1462 -2.069312 -88.97474 21.78192 15.95146 0 0 -20.58454 9.185996 9.826686 3.041289
2.753153 104.29 56.27636 -0.8850932 -0.3380819 2.44367 5.866027 -8.803551 3.721701 -0 16.4834 -0 -9.503829 -11.33146 -1.461743 -3.195746 -3.448248 -10.90582 -0 53.27552 -0 -5.610126 -4.609508 9.866602 -1.898867 -1.058739 4.485036 2.852045 10.70216 -8.050157 0.5917569 20.82895 7.304092 3.781116 -24.35452 7.939734 5.07927 -16.91945 11.81531 88.02151 34.98922 -21.32699 -0 0 9.829468 -14.17117 11.68888 8.592074 5.902628 -21.83415 -2.526076 -89.13825 22.199 16.86249 0 0 -20.22298 8.462605 9.241163 4.105133
2.996482 105.2164 61.3869 -0.252107 -1.20801 2.275238 5.229472 -3.734098 3.009372 -0 13.94831 -0 -9.149037 -12.49745 -0.8988193 -2.420012 -9.866663 -9.208364 -0 53.42518 -0 -4.889876 -3.780188 10.63589 -1.915154 -0.8951576 5.033988 2.382325 10.97042 -7.539106 0.5674496 21.11877 7.047311 3.678797 -23.63982 7.582148 4.880245 -17.33762 11.82961 87.52951 35.04398 -20.14799 -0 0 10.5327 -15.24116 11.69866 9.274918 5.440207 -21.42098 -2.877093 -89.41519 22.56127 18.00695 0 0 -19.65638 7.679069 8.642822 5.198393
3.286483 105.7002 66.2957 0.1567762 -2.139331 2.065943 4.996661 0.8921715 2.348292 -0 10.95937 -0 -8.721583 -13.60644 -0.4549063 -1.145811 -15.77017 -7.268679 -0 49.5558 -0 -3.628287 -3.605794 12.02619 -1.950506 -0.7643544 5.643347 1.877484 11.13649 -6.972908 0.5344651 21.35529 6.806719 3.584447 -22.91924 7.219503 4.647555 -17.88429 11.84081 86.71504 34.97452 -18.56407 -0 0 11.65664 -16.45781 11.69048 10.08018 5.034903 -20.91105 -3.074469 -89.81852 22.83987 19.36052 0 0 -18.85587 6.844497 8.075691 6.28631
3.648324 105.604 71.09393 0.2708453 -3.082651 1.795116 5.072182 5.087279 1.848666 -0 8.326781 -0 -8.239752 -14.92438 -0.2348748 0.4364489 -20.35257 -5.399207 -0 42.1866 -0 -2.381066 -3.821763 13.76288 -2.010262 -0.6779881 6.291802 1.36288 11.17524 -6.371187 0.4925816 21.52749 6.596302 3.503971 -22.22924 6.865996 4.394154 -18.54647 11.84252 85.56548 34.76746 -16.58596 -0 0 13.19122 -17.77568 11.65327 10.98541 4.707919 -20.31672 -3.092848 -90.34629 23.02532 20.87606 0 0 -17.82633 5.981162 7.581086 7.33128
4.108102 104.9264 75.94925 0.1236061 -3.839871 1.451289 5.227974 8.890611 1.540602 -0 6.665446 -0 -7.649441 -16.46924 -0.1422611 1.971359 -23.40099 -3.909722 -0 32.77186 -0 -1.610928 -4.185786 15.42783 -2.098116 -0.6414934 6.952995 0.8657824 11.07779 -5.757273 0.4428368 21.63444 6.428303 3.441524 -21.60259 6.537418 4.135135 -19.2966 11.8308 84.1179 34.43211 -14.27627 -0 0 15.06735 -19.1307 11.57619 11.95393 4.467238 -19.66248 -2.933739 -90.9679 23.11871 22.47091 0 0 -16.62583 5.125183 7.184832 8.290824
4.689806 103.7977 81.05729 -0.1736355 -4.211818 1.03794 5.240465 12.29397 1.386173 -0 6.222948 -0 -6.9242 -17.78809 0.006235159 3.11289 -25.14437 -2.962295 -0 23.17736 -0 -1.392128 -4.537061 16.72061 -2.210681 -0.6504163 7.586384 0.4175891 10.8604 -5.167134 0.3889427 21.68096 6.312283 3.399668 -21.06872 6.2512 3.887221 -20.08014 11.80702 82.48908 33.9876 -11.79354 -0 0 17.13238 -20.44322 11.45816 12.92781 4.31021 -18.99306 -2.632105 -91.6159 23.12693 24.01029 0 0 -15.37005 4.319837 6.891701 9.124713
5.411532 102.436 86.58243 -0.4660579 -4.19141 0.5658511 4.95222 15.26605 1.340959 -0 7.104688 -0 -6.137733 -18.14795 0.2882474 3.58435 -25.8419 -2.621224 -0 15.19584 -0 -1.502051 -4.799673 17.59256 -2.332998 -0.6861446 8.134259 0.05245796 10.57528 -4.651973 0.3395274 21.679 6.250043 3.378004 -20.65144 6.024348 3.671127 -20.8079 11.7795 80.89026 33.46324 -9.4184 -0 0 19.13385 -21.61805 11.31374 13.82041 4.222209 -18.37524 -2.263857 -92.19428 23.068 25.31413 0 0 -14.21297 3.605548 6.685627 9.810105
